HIERARCHY
ROOT ROOT
{
	OFFSET 0.000000 56.020000 -5.659234
	CHANNELS 6 Xposition Yposition Zposition Xrotation Yrotation Zrotation 
	JOINT C_spine0001_bind_JNT
	{
		OFFSET 0.000000 1.618999 0.000000
		CHANNELS 3 Xrotation Yrotation Zrotation
		JOINT C_spine0002_bind_JNT
		{
			OFFSET 0.000000 4.942001 0.000001
			CHANNELS 3 Xrotation Yrotation Zrotation
			JOINT C_spine0003_bind_JNT
			{
				OFFSET 0.000000 4.942001 -0.000000
				CHANNELS 3 Xrotation Yrotation Zrotation
				JOINT C_neck0001_bind_JNT
				{
					OFFSET 0.000000 17.026009 -0.000000
					CHANNELS 3 Xrotation Yrotation Zrotation
					JOINT C_neck0002_bind_JNT
					{
						OFFSET 0.000000 3.249985 0.000000
						CHANNELS 3 Xrotation Yrotation Zrotation
						JOINT C_head_bind_JNT
						{
							OFFSET 0.000000 5.278008 0.000000
							CHANNELS 3 Xrotation Yrotation Zrotation
							End Site
							{
								OFFSET 0.000000 0.000000 0.000000
							}
						}
					}
				}
				JOINT L_clavicle_bind_JNT
				{
					OFFSET 4.590000 12.067001 0.834000
					CHANNELS 3 Xrotation Yrotation Zrotation
					JOINT L_armUpper0001_bind_JNT
					{
						OFFSET 7.812635 0.512001 -3.452945
						CHANNELS 3 Xrotation Yrotation Zrotation
						JOINT L_armLower0001_bind_JNT
						{
							OFFSET 15.265892 -6.552116 -0.058157
							CHANNELS 3 Xrotation Yrotation Zrotation
							JOINT L_hand0001_bind_JNT
							{
								OFFSET 14.747667 -6.369995 5.049225
								CHANNELS 3 Xrotation Yrotation Zrotation
								End Site
								{
									OFFSET 0.000000 0.000000 0.000000
								}
							}
						}
					}
				}
				JOINT R_clavicle_bind_JNT
				{
					OFFSET -4.590000 12.067001 0.834000
					CHANNELS 3 Xrotation Yrotation Zrotation
					JOINT R_armUpper0001_bind_JNT
					{
						OFFSET -7.812635 0.512001 -3.452945
						CHANNELS 3 Xrotation Yrotation Zrotation
						JOINT R_armLower0001_bind_JNT
						{
							OFFSET -15.265890 -6.552124 -0.058160
							CHANNELS 3 Xrotation Yrotation Zrotation
							JOINT R_hand0001_bind_JNT
							{
								OFFSET -14.746784 -6.369629 5.048937
								CHANNELS 3 Xrotation Yrotation Zrotation
								End Site
								{
									OFFSET 0.000000 0.000000 0.000000
								}
							}
						}
					}
				}
			}
		}
	}
	JOINT C_pelvis0001_bind_JNT
	{
		OFFSET -0.000000 0.000000 0.000000
		CHANNELS 3 Xrotation Yrotation Zrotation
		JOINT L_legUpper0001_bind_JNT
		{
			OFFSET 6.599999 -6.027000 0.539000
			CHANNELS 3 Xrotation Yrotation Zrotation
			JOINT L_legLower0001_bind_JNT
			{
				OFFSET -0.140713 -19.187443 0.040261
				CHANNELS 3 Xrotation Yrotation Zrotation
				JOINT L_foot0001_bind_JNT
				{
					OFFSET -0.132215 -18.028637 -1.138370
					CHANNELS 3 Xrotation Yrotation Zrotation
					JOINT L_foot0002_bind_JNT
					{
						OFFSET 0.007014 -4.693133 9.886524
						CHANNELS 3 Xrotation Yrotation Zrotation
						End Site
						{
							OFFSET 0.000000 0.000000 0.000000
						}
					}
				}
			}
		}
		JOINT R_legUpper0001_bind_JNT
		{
			OFFSET -6.599999 -6.027000 0.539000
			CHANNELS 3 Xrotation Yrotation Zrotation
			JOINT R_legLower0001_bind_JNT
			{
				OFFSET 0.140710 -19.187164 0.040550
				CHANNELS 3 Xrotation Yrotation Zrotation
				JOINT R_foot0001_bind_JNT
				{
					OFFSET 0.132215 -18.028633 -1.138362
					CHANNELS 3 Xrotation Yrotation Zrotation
					JOINT R_foot0002_bind_JNT
					{
						OFFSET -0.007014 -4.693128 9.886505
						CHANNELS 3 Xrotation Yrotation Zrotation
						End Site
						{
							OFFSET 0.000000 0.000000 0.000000
						}
					}
				}
			}
		}
	}
}
MOTION
Frames: 10
Frame Time: 0.033333
74.839966 45.205143 90.146301 0.027219 5.406573 -0.099415 38.787453 47.257812 -45.005714 -4.277367 0.301042 -2.558997 5.939730 1.857876 -5.431774 24.482927 2.163092 4.069108 -0.020950 -0.258018 0.088585 11.349287 4.956728 6.458955 2.400192 0.659566 3.726279 -45.614586 -16.687668 -31.324390 -16.463474 14.480893 -1.281089 -5.016297 -6.075599 -28.475599 8.009553 -4.162466 -16.426407 5.104974 -18.804071 64.894104 1.775984 -10.858135 4.862996 -4.879282 13.259591 32.948792 38.901329 48.946388 -42.075771 -63.603134 11.172718 28.302893 54.382278 2.371905 -12.050261 -17.656309 13.996981 4.183708 -3.311148 0.097932 1.392987 -49.144836 -10.498278 -20.769867 58.021053 0.230952 9.801786 -6.508520 -8.171128 8.982311 -8.295008 -0.352501 6.938005 
76.568687 45.338673 90.368698 0.031666 5.888173 -0.087587 39.354004 46.147640 -45.297199 -4.274559 -0.477676 -2.295277 6.055143 1.215867 -5.792888 24.393463 2.473479 4.095827 -0.084162 -0.344395 0.193760 11.782871 5.180656 6.390285 1.466067 -0.676068 2.519754 -46.909382 -18.579107 -29.978983 -16.140259 13.670088 -1.728432 -5.458137 -6.322554 -27.758183 7.208817 -3.172944 -16.021669 10.447928 -22.427824 64.437454 -0.244284 -11.588470 4.974052 -6.215153 13.132749 32.543659 40.343376 48.789917 -43.677761 -62.415569 11.698256 27.436472 54.387131 2.027182 -10.976673 -18.925406 13.530107 3.349190 -3.882681 -0.184163 1.352447 -53.661953 -11.212514 -19.848074 55.396687 -0.790756 10.986072 -7.898402 -8.655921 8.120646 -6.082331 -0.491969 4.524853 
78.234352 45.377865 90.705803 0.036399 6.919694 -0.087692 40.036766 44.727749 -45.163208 -4.087198 -1.400497 -2.060721 6.089624 0.076187 -5.784027 24.223547 2.900461 4.016881 0.122304 -0.295188 0.092144 11.310269 5.325480 5.883038 0.364122 -1.502894 0.970537 -46.686935 -20.432371 -28.198236 -16.029907 12.417206 -2.679289 -5.685620 -6.737104 -27.471331 6.713482 -2.119414 -15.528239 13.339187 -25.707560 63.194595 -1.179824 -12.735583 6.758752 -6.285983 13.367881 32.318584 41.111019 48.960632 -44.544415 -60.788467 12.096640 26.988989 54.282265 1.349756 -10.174028 -19.854357 12.847201 2.225286 -4.753800 -0.047845 1.433554 -57.890766 -12.145773 -19.356955 52.415253 -1.869061 10.951068 -7.412382 -9.464981 7.749515 -5.469335 0.325149 2.354367 
79.904182 45.449146 91.207123 0.037779 8.264851 -0.100619 40.414639 43.605556 -44.527550 -3.838440 -2.217442 -1.944750 6.395765 -0.853633 -5.524642 23.979212 2.794959 3.696324 0.182331 -0.046925 0.308523 11.432356 4.911783 5.949373 -0.085331 -2.298566 0.339611 -46.777760 -20.850153 -27.882921 -15.649677 10.576528 -3.407058 -6.188588 -7.579945 -27.875099 6.325993 -1.491506 -14.864927 15.249132 -28.250299 62.322891 -2.153090 -13.181594 7.525911 -5.479914 13.145144 32.457371 42.158253 49.007805 -45.111378 -59.283184 13.091677 26.316303 54.225468 0.974945 -9.430590 -20.733135 12.722542 1.576097 -5.664197 -0.183916 0.916135 -61.098888 -12.540728 -18.958105 47.578686 -2.730661 10.401570 -5.917001 -9.401031 8.145597 -4.597275 0.812837 1.011547 
81.472343 45.336636 91.711510 0.043609 9.416499 -0.090242 41.241680 42.871105 -44.268223 -3.736328 -3.087685 -1.523670 6.829951 -1.546700 -5.231158 23.671827 2.712810 3.617861 0.419371 0.103652 -0.200038 11.085911 4.263291 6.029401 -0.120147 -2.585064 0.185760 -46.401798 -21.126877 -27.964943 -15.407533 8.568377 -3.776813 -6.375775 -8.086398 -29.042130 6.564429 -0.899778 -14.315899 16.126816 -30.230822 62.190434 -3.282213 -13.938345 7.977055 -4.657768 13.086088 32.509972 43.228970 49.359730 -45.892879 -57.575356 13.596698 25.766518 54.063831 0.497596 -8.776551 -22.047632 11.882770 0.810155 -6.026197 -0.020825 0.885055 -63.609188 -12.746716 -18.927748 41.813015 -2.645372 9.736587 -3.300920 -9.661025 7.488449 -3.454229 0.791519 1.674355 
82.999924 45.151470 92.456993 0.021124 9.758500 -0.100764 42.698921 42.961201 -44.896080 -3.797492 -3.766244 -1.041713 7.165565 -2.191560 -4.627470 23.495380 2.630191 3.196742 0.349687 0.127376 0.103902 11.415537 4.262228 5.283511 0.245297 -3.113714 0.483311 -45.704777 -20.532227 -28.763872 -14.719183 6.580238 -3.581355 -6.225120 -8.776740 -30.133970 6.631623 -0.541790 -13.225189 16.546778 -31.289251 61.257519 -4.804682 -14.810829 8.271062 -2.521986 13.060122 32.661304 45.090355 50.605293 -47.714691 -56.263474 13.915314 25.747429 54.522507 0.281027 -8.327734 -23.121897 10.898364 0.248718 -6.290008 -0.178071 0.282134 -64.810493 -12.969463 -18.603714 35.491634 -3.338320 9.072697 -0.435258 -9.073939 7.333892 -2.828802 0.664949 1.929946 
84.517509 45.136543 93.349815 0.027013 11.619056 -0.091028 43.743835 42.214718 -44.300282 -3.603016 -4.339412 -0.753546 7.522964 -2.725722 -3.816162 23.625427 2.359885 2.825017 0.236657 0.273136 -0.056487 10.627445 3.563127 5.369697 0.331672 -3.077745 0.982199 -44.864414 -20.093130 -29.994017 -13.443176 4.699498 -3.909465 -6.913797 -9.025456 -31.391087 6.669930 -0.069466 -12.185461 16.537834 -32.522892 60.955574 -5.816435 -15.569709 8.076856 -1.602556 13.456164 33.186943 46.606007 50.492264 -48.202976 -55.142090 14.698724 25.339832 54.005436 0.047320 -7.775296 -23.615807 10.011776 -0.749824 -6.875849 -0.420586 0.143861 -66.647728 -14.100436 -18.925411 30.067936 -3.203296 8.372105 1.252733 -8.076404 7.334598 -2.998384 0.532199 2.075900 
86.071899 44.947071 94.537186 0.016717 13.301384 -0.084914 45.064159 41.903152 -43.534435 -3.496553 -4.979834 -0.443060 7.979821 -3.115042 -3.375361 23.168076 2.233406 2.776149 0.118642 0.259803 -0.090264 10.660151 3.332128 4.954344 0.712368 -2.519069 1.873689 -43.937794 -19.446407 -31.739256 -12.394263 3.060870 -4.211582 -6.847208 -9.593691 -31.319113 6.924422 0.623838 -10.619257 15.875111 -32.601990 60.636784 -7.506178 -16.718906 7.658252 0.218935 13.816907 33.482002 48.160461 51.163555 -48.232029 -53.537033 15.957664 25.253307 53.556248 -0.172303 -6.914701 -23.993134 8.386093 -2.472246 -6.959146 -0.013751 -0.263884 -68.495705 -15.226016 -19.276752 26.631210 -2.541627 7.304434 2.829904 -7.399137 8.039457 -2.987998 0.661590 2.003953 
87.900719 44.865551 95.640533 0.039648 15.245561 -0.100184 46.673149 42.218452 -42.708424 -3.042441 -5.292209 -0.083051 8.365041 -3.336367 -2.662693 22.605810 1.356836 2.571361 0.464213 0.144480 -0.085670 10.225017 2.178179 4.958511 1.378839 -2.500654 2.318064 -43.520657 -18.315445 -34.258816 -10.852751 1.347281 -4.189355 -7.434776 -9.224136 -31.832207 6.867731 1.352588 -9.231760 14.510746 -32.897476 59.913277 -8.388207 -17.971090 7.506605 1.854023 14.549520 34.158913 49.171360 51.310822 -48.307480 -51.724472 17.083076 25.456989 52.656197 -0.403854 -6.288282 -23.798454 7.149737 -4.320372 -8.069337 -0.860571 -0.393889 -70.648567 -15.926478 -20.230803 26.087051 -2.310817 6.747223 3.274404 -6.142087 7.299150 -1.937762 0.497974 2.010221 
90.089104 44.443680 97.110947 0.008315 16.320126 -0.079537 48.791431 43.421974 -41.909969 -2.559514 -5.906828 0.200529 8.209080 -3.312565 -1.973790 22.754713 0.729421 2.293910 0.396804 0.325006 -0.342422 10.173261 0.701867 4.062199 2.495807 -1.610340 2.539100 -41.777534 -17.319159 -37.120384 -9.309617 0.297945 -3.843401 -7.992404 -9.027723 -32.811954 7.242613 2.292075 -8.211580 13.440434 -32.377956 58.781235 -8.832795 -18.342461 8.184668 2.342883 15.051144 35.289368 50.510960 52.457973 -48.117546 -49.004723 18.211596 25.638868 50.844692 -0.352166 -5.834165 -22.441343 5.324062 -5.821186 -8.846987 -0.209333 -1.271811 -72.793480 -15.365330 -21.220110 30.234631 -2.652910 5.477551 3.247200 -5.017641 6.484294 -1.189455 0.787366 0.852723 
